# xmcd
#
# Track frame offsets:
# 150
# 22705
# 33250
# 45845
# 58294
# 68505
# 86082
# 97962
# 116708
# 126863
# 145308
# 154880
# 173048
# 186551
# 202349
# 213601
# 224365
# 240905
# 256572
# 269584
# 282274
# 294846
# 314738
#
# Disc length: 4360 seconds
#
#
# Revision: 1
# Processed by: cddbd v1.5.1PL2 Copyright (c) Steve Scherf et al.
# Submitted via: FreeRIP 2.945 
#
DISCID=58110617
DTITLE=Various Artist - Road Music  23 Truckin' Hits
DYEAR=2004
DGENRE=Country
TTITLE0=Red Sovine - Teddy Bear
TTITLE1=Dave Dudley - Six Days On The Road
TTITLE2=Del Reeves - Girl On The Billboard
TTITLE3=Coleman Wilson - Passing Zone Blues
TTITLE4=Dave Dudley - Truck Driving Son Of A Gun
TTITLE5=C.W. McCall - Convoy
TTITLE6=Willis Brothers - Give Me Forty Acres
TTITLE7=T.H. Music Festival - White Knight
TTITLE8=Del Reeves - Looking At The World Through A Windsheild
TTITLE9=Minnie Pearl - Giddyup Go Answer
TTITLE10=Moore and Napier - Truck Drivin' Queen
TTITLE11=Red Sovine - Giddyup Go
TTITLE12=Tiny Harris - Endless Black Ribbon
TTITLE13=Rod Hart - C.B. Savage
TTITLE14=Jimmy Martin - Truck Drivin Man
TTITLE15=Jimmy Griggs - Overloaded Diesel
TTITLE16=Lonnie Irving - Pinball Machine
TTITLE17=Red Sovine - Phantom 309
TTITLE18=Red Sovine - Truck Drivers Prayer
TTITLE19=Claude Gray - How Fast Them Trucks Can Go
TTITLE20=Jimmy Martin - Widowmaker
TTITLE21=Red Sovine - Little Joe
TTITLE22=Red Sovine - Freightliner Fever
EXTD=TeeVee Records
EXTT0=
EXTT1=
EXTT2=
EXTT3=
EXTT4=
EXTT5=
EXTT6=
EXTT7=
EXTT8=
EXTT9=
EXTT10=
EXTT11=
EXTT12=
EXTT13=
EXTT14=
EXTT15=
EXTT16=
EXTT17=
EXTT18=
EXTT19=
EXTT20=
EXTT21=
EXTT22=
PLAYORDER=
